<svg id="visual" viewBox="0 0 960 540" width="960" height="540" xmlns="http://www.w3.org/2000/svg" xmlns:xlink="http://www.w3.org/1999/xlink" version="1.1"><path d="M0 104L14.5 113C29 122 58 140 87.2 140C116.3 140 145.7 122 174.8 135.5C204 149 233 194 262 189.5C291 185 320 131 349 113C378 95 407 113 436.2 124.7C465.3 136.3 494.7 141.7 523.8 134.3C553 127 582 107 611 105.2C640 103.3 669 119.7 698 131.5C727 143.3 756 150.7 785.2 157C814.3 163.3 843.7 168.7 872.8 156C902 143.3 931 112.7 945.5 97.3L960 82L960 0L945.5 0C931 0 902 0 872.8 0C843.7 0 814.3 0 785.2 0C756 0 727 0 698 0C669 0 640 0 611 0C582 0 553 0 523.8 0C494.7 0 465.3 0 436.2 0C407 0 378 0 349 0C320 0 291 0 262 0C233 0 204 0 174.8 0C145.7 0 116.3 0 87.2 0C58 0 29 0 14.5 0L0 0Z" fill="#ff9300"></path><path d="M0 174L14.5 182C29 190 58 206 87.2 205C116.3 204 145.7 186 174.8 201.3C204 216.7 233 265.3 262 258.2C291 251 320 188 349 172.7C378 157.3 407 189.7 436.2 203.2C465.3 216.7 494.7 211.3 523.8 200.7C553 190 582 174 611 177.7C640 181.3 669 204.7 698 217.2C727 229.7 756 231.3 785.2 232.2C814.3 233 843.7 233 872.8 223.2C902 213.3 931 193.7 945.5 183.8L960 174L960 80L945.5 95.3C931 110.7 902 141.3 872.8 154C843.7 166.7 814.3 161.3 785.2 155C756 148.7 727 141.3 698 129.5C669 117.7 640 101.3 611 103.2C582 105 553 125 523.8 132.3C494.7 139.7 465.3 134.3 436.2 122.7C407 111 378 93 349 111C320 129 291 183 262 187.5C233 192 204 147 174.8 133.5C145.7 120 116.3 138 87.2 138C58 138 29 120 14.5 111L0 102Z" fill="#f88500"></path><path d="M0 282L14.5 284.7C29 287.3 58 292.7 87.2 292.7C116.3 292.7 145.7 287.3 174.8 298.2C204 309 233 336 262 327.8C291 319.7 320 276.3 349 264.7C378 253 407 273 436.2 282C465.3 291 494.7 289 523.8 278.2C553 267.3 582 247.7 611 245.8C640 244 669 260 698 270.8C727 281.7 756 287.3 785.2 293.7C814.3 300 843.7 307 872.8 295.2C902 283.3 931 252.7 945.5 237.3L960 222L960 172L945.5 181.8C931 191.7 902 211.3 872.8 221.2C843.7 231 814.3 231 785.2 230.2C756 229.3 727 227.7 698 215.2C669 202.7 640 179.3 611 175.7C582 172 553 188 523.8 198.7C494.7 209.3 465.3 214.7 436.2 201.2C407 187.7 378 155.3 349 170.7C320 186 291 249 262 256.2C233 263.3 204 214.7 174.8 199.3C145.7 184 116.3 202 87.2 203C58 204 29 188 14.5 180L0 172Z" fill="#f07600"></path><path d="M0 438L14.5 445.3C29 452.7 58 467.3 87.2 471C116.3 474.7 145.7 467.3 174.8 461C204 454.7 233 449.3 262 440.3C291 431.3 320 418.7 349 423.2C378 427.7 407 449.3 436.2 453C465.3 456.7 494.7 442.3 523.8 431.5C553 420.7 582 413.3 611 423.2C640 433 669 460 698 464.5C727 469 756 451 785.2 439.3C814.3 427.7 843.7 422.3 872.8 422.3C902 422.3 931 427.7 945.5 430.3L960 433L960 220L945.5 235.3C931 250.7 902 281.3 872.8 293.2C843.7 305 814.3 298 785.2 291.7C756 285.3 727 279.7 698 268.8C669 258 640 242 611 243.8C582 245.7 553 265.3 523.8 276.2C494.7 287 465.3 289 436.2 280C407 271 378 251 349 262.7C320 274.3 291 317.7 262 325.8C233 334 204 307 174.8 296.2C145.7 285.3 116.3 290.7 87.2 290.7C58 290.7 29 285.3 14.5 282.7L0 280Z" fill="#e86700"></path><path d="M0 541L14.5 541C29 541 58 541 87.2 541C116.3 541 145.7 541 174.8 541C204 541 233 541 262 541C291 541 320 541 349 541C378 541 407 541 436.2 541C465.3 541 494.7 541 523.8 541C553 541 582 541 611 541C640 541 669 541 698 541C727 541 756 541 785.2 541C814.3 541 843.7 541 872.8 541C902 541 931 541 945.5 541L960 541L960 431L945.5 428.3C931 425.7 902 420.3 872.8 420.3C843.7 420.3 814.3 425.7 785.2 437.3C756 449 727 467 698 462.5C669 458 640 431 611 421.2C582 411.3 553 418.7 523.8 429.5C494.7 440.3 465.3 454.7 436.2 451C407 447.3 378 425.7 349 421.2C320 416.7 291 429.3 262 438.3C233 447.3 204 452.7 174.8 459C145.7 465.3 116.3 472.7 87.2 469C58 465.3 29 450.7 14.5 443.3L0 436Z" fill="#e05800"></path></svg>